#tb 0: 1/25
#media_type 0: video
#codec_id 0: rawvideo
#dimensions 0: 416x240
#sar 0: 0/1
0,          0,          0,        1,   149760, 0xd8bf0c39
0,          1,          1,        1,   149760, 0xad390a29
0,          2,          2,        1,   149760, 0x0d310906
0,          3,          3,        1,   149760, 0x03bcb5ac
0,          4,          4,        1,   149760, 0x6c38226f
0,          5,          5,        1,   149760, 0xc7d898b6
0,          6,          6,        1,   149760, 0x1e031118
0,          7,          7,        1,   149760, 0x7a2437f2
0,          8,          8,        1,   149760, 0x524d616a
0,          9,          9,        1,   149760, 0x001ac80e
0,         10,         10,        1,   149760, 0x6fe323e4
0,         11,         11,        1,   149760, 0x2a95a125
0,         12,         12,        1,   149760, 0x212316e4
0,         13,         13,        1,   149760, 0x7984e2ed
0,         14,         14,        1,   149760, 0xb0a4a95c
0,         15,         15,        1,   149760, 0x100566ae
0,         16,         16,        1,   149760, 0xb21b2344
0,         17,         17,        1,   149760, 0x0578bca2
0,         18,         18,        1,   149760, 0xf7523964
0,         19,         19,        1,   149760, 0x38d2ca9e
0,         20,         20,        1,   149760, 0x77890564
0,         21,         21,        1,   149760, 0xbdba85df
0,         22,         22,        1,   149760, 0x646ae92d
0,         23,         23,        1,   149760, 0xfcbb58b9
0,         24,         24,        1,   149760, 0x0122aa96
0,         25,         25,        1,   149760, 0x60f8e1ee
0,         26,         26,        1,   149760, 0x3fc2d587
0,         27,         27,        1,   149760, 0xdb622c12
0,         28,         28,        1,   149760, 0xa8df64cf
0,         29,         29,        1,   149760, 0x12f8d6c8
0,         30,         30,        1,   149760, 0xf6703c4d
0,         31,         31,        1,   149760, 0x66ef211d
0,         32,         32,        1,   149760, 0x821b02f6
0,         33,         33,        1,   149760, 0xc87f48a0
0,         34,         34,        1,   149760, 0xb816ad51
0,         35,         35,        1,   149760, 0x238e6fa0
0,         36,         36,        1,   149760, 0x0fc06010
0,         37,         37,        1,   149760, 0x749c71dc
0,         38,         38,        1,   149760, 0x88c69718
0,         39,         39,        1,   149760, 0x4b29aeb1
0,         40,         40,        1,   149760, 0xaaefb509
0,         41,         41,        1,   149760, 0x2975fda6
0,         42,         42,        1,   149760, 0x613ec356
0,         43,         43,        1,   149760, 0xf1e46db6
0,         44,         44,        1,   149760, 0x8c8aec07
0,         45,         45,        1,   149760, 0xb9a8be75
0,         46,         46,        1,   149760, 0xfdce756a
0,         47,         47,        1,   149760, 0x9c76f148
0,         48,         48,        1,   149760, 0x5d1862dd
0,         49,         49,        1,   149760, 0x42ae08bf
0,         50,         50,        1,   149760, 0xc28f9247
0,         51,         51,        1,   149760, 0x719d321c
0,         52,         52,        1,   149760, 0x1520a7bc
0,         53,         53,        1,   149760, 0x4fb98c9a
0,         54,         54,        1,   149760, 0x88d410a6
0,         55,         55,        1,   149760, 0x807ac417
0,         56,         56,        1,   149760, 0x6de5f4ab
0,         57,         57,        1,   149760, 0x678613c7
0,         58,         58,        1,   149760, 0xe7d12abf
0,         59,         59,        1,   149760, 0x23955076
0,         60,         60,        1,   149760, 0x298d1bce
0,         61,         61,        1,   149760, 0x18d4605d
0,         62,         62,        1,   149760, 0x3a606618
0,         63,         63,        1,   149760, 0x861fcb5a
0,         64,         64,        1,   149760, 0xc6622a90
0,         65,         65,        1,   149760, 0x62d4cd48
0,         66,         66,        1,   149760, 0x991430e6
0,         67,         67,        1,   149760, 0x6316503c
0,         68,         68,        1,   149760, 0xdf2d29f2
0,         69,         69,        1,   149760, 0xeeeb307a
0,         70,         70,        1,   149760, 0xade9ae1d
0,         71,         71,        1,   149760, 0x54734581
0,         72,         72,        1,   149760, 0x5ccd7389
0,         73,         73,        1,   149760, 0xf0588bf8
0,         74,         74,        1,   149760, 0xf18e44e5
0,         75,         75,        1,   149760, 0x4512602b
0,         76,         76,        1,   149760, 0x9aac8281
0,         77,         77,        1,   149760, 0x69bdad58
0,         78,         78,        1,   149760, 0x04ffe580
0,         79,         79,        1,   149760, 0x28bfe45f
0,         80,         80,        1,   149760, 0xd7ce93b0
0,         81,         81,        1,   149760, 0xa880b1d4
0,         82,         82,        1,   149760, 0xf38298d0
0,         83,         83,        1,   149760, 0x2ae05958
0,         84,         84,        1,   149760, 0xa892151b
0,         85,         85,        1,   149760, 0xed2cef63
0,         86,         86,        1,   149760, 0x678fc6f5
0,         87,         87,        1,   149760, 0xfcbaa892
0,         88,         88,        1,   149760, 0x48cc722b
0,         89,         89,        1,   149760, 0x32cd8975
0,         90,         90,        1,   149760, 0x05ad8586
0,         91,         91,        1,   149760, 0x62a0fb36
0,         92,         92,        1,   149760, 0x41df8d45
0,         93,         93,        1,   149760, 0x80bd938d
0,         94,         94,        1,   149760, 0xafe414b0
0,         95,         95,        1,   149760, 0x3077d51d
0,         96,         96,        1,   149760, 0x65148cef
0,         97,         97,        1,   149760, 0xadb76ef0
0,         98,         98,        1,   149760, 0x889c3051
0,         99,         99,        1,   149760, 0xe83b227e
0,        100,        100,        1,   149760, 0xc373f5e0
0,        101,        101,        1,   149760, 0x6ffa2a5f
0,        102,        102,        1,   149760, 0x6eef18f5
0,        103,        103,        1,   149760, 0x1b1ba6e4
0,        104,        104,        1,   149760, 0x88e316a4
0,        105,        105,        1,   149760, 0x4c0697f4
0,        106,        106,        1,   149760, 0x5eb30515
0,        107,        107,        1,   149760, 0xeeff8fa3
0,        108,        108,        1,   149760, 0x653a07a9
0,        109,        109,        1,   149760, 0x3faf44a8
0,        110,        110,        1,   149760, 0xe33f740e
0,        111,        111,        1,   149760, 0x6bea0f49
0,        112,        112,        1,   149760, 0x4d5aa784
0,        113,        113,        1,   149760, 0x0c85ea00
0,        114,        114,        1,   149760, 0xf64fc40b
0,        115,        115,        1,   149760, 0xf222e3b4
0,        116,        116,        1,   149760, 0x6b3be6bc
0,        117,        117,        1,   149760, 0x91447dfb
0,        118,        118,        1,   149760, 0xfd0dd98c
0,        119,        119,        1,   149760, 0x468eb01a
0,        120,        120,        1,   149760, 0x928a720a
0,        121,        121,        1,   149760, 0x0b3f576b
0,        122,        122,        1,   149760, 0x430493df
0,        123,        123,        1,   149760, 0x375d2221
0,        124,        124,        1,   149760, 0x50d0a88c
0,        125,        125,        1,   149760, 0x54363ffb
0,        126,        126,        1,   149760, 0xc243c434
0,        127,        127,        1,   149760, 0x26fe8f5c
0,        128,        128,        1,   149760, 0xd936485c
0,        129,        129,        1,   149760, 0xd936485c
0,        130,        130,        1,   149760, 0xa0cabe5a
0,        131,        131,        1,   149760, 0xf0956484
0,        132,        132,        1,   149760, 0x14cda6ee
0,        133,        133,        1,   149760, 0x0b7ada70
0,        134,        134,        1,   149760, 0x113f0ec5
0,        135,        135,        1,   149760, 0xc1364acc
0,        136,        136,        1,   149760, 0x0c768a6a
0,        137,        137,        1,   149760, 0x94fd7a00
0,        138,        138,        1,   149760, 0x624a5ebb
0,        139,        139,        1,   149760, 0xdd5008a0
0,        140,        140,        1,   149760, 0xc380626c
0,        141,        141,        1,   149760, 0xb0974c02
0,        142,        142,        1,   149760, 0x68be6c1e
0,        143,        143,        1,   149760, 0xb8d24677
0,        144,        144,        1,   149760, 0x1efe195c
0,        145,        145,        1,   149760, 0x29e9153a
0,        146,        146,        1,   149760, 0x1b6057b7
0,        147,        147,        1,   149760, 0x959a4461
0,        148,        148,        1,   149760, 0x4e3d33a9
0,        149,        149,        1,   149760, 0x206e7899
0,        150,        150,        1,   149760, 0xcb7da081
0,        151,        151,        1,   149760, 0xc650ed7b
0,        152,        152,        1,   149760, 0x82832d10
0,        153,        153,        1,   149760, 0xdf9c6218
0,        154,        154,        1,   149760, 0xcc3489c7
0,        155,        155,        1,   149760, 0xd284a4a1
0,        156,        156,        1,   149760, 0x7099451c
0,        157,        157,        1,   149760, 0xec26fc56
0,        158,        158,        1,   149760, 0x105a496f
0,        159,        159,        1,   149760, 0xb8756fe8
0,        160,        160,        1,   149760, 0xb1a509df
0,        161,        161,        1,   149760, 0x135f8f7e
0,        162,        162,        1,   149760, 0x3419098d
0,        163,        163,        1,   149760, 0xa55dad5f
0,        164,        164,        1,   149760, 0x326ba794
0,        165,        165,        1,   149760, 0x5401b03c
0,        166,        166,        1,   149760, 0x3ace76ee
0,        167,        167,        1,   149760, 0x140191ac
0,        168,        168,        1,   149760, 0x3e3ca195
0,        169,        169,        1,   149760, 0x2a8b3622
0,        170,        170,        1,   149760, 0x9e33c765
0,        171,        171,        1,   149760, 0xf7795367
0,        172,        172,        1,   149760, 0xa7909e25
0,        173,        173,        1,   149760, 0x44a5a014
0,        174,        174,        1,   149760, 0x919bb07c
0,        175,        175,        1,   149760, 0xd353b9a7
0,        176,        176,        1,   149760, 0x4c3dda24
0,        177,        177,        1,   149760, 0x1428eafb
0,        178,        178,        1,   149760, 0x9d9fa613
0,        179,        179,        1,   149760, 0x661475c6
0,        180,        180,        1,   149760, 0x5f6f4180
0,        181,        181,        1,   149760, 0xf50a4b4c
0,        182,        182,        1,   149760, 0xf6373eb9
0,        183,        183,        1,   149760, 0x0ab24b74
0,        184,        184,        1,   149760, 0x6b3d58b0
0,        185,        185,        1,   149760, 0xc4c8bd05
0,        186,        186,        1,   149760, 0x0df172c6
0,        187,        187,        1,   149760, 0x81a85144
0,        188,        188,        1,   149760, 0x7f926ee5
0,        189,        189,        1,   149760, 0x3a355d45
0,        190,        190,        1,   149760, 0x9f645c90
0,        191,        191,        1,   149760, 0xf42674ea
0,        192,        192,        1,   149760, 0xa6e943ab
0,        193,        193,        1,   149760, 0xede16b49
0,        194,        194,        1,   149760, 0xf80c9957
0,        195,        195,        1,   149760, 0xa7a44665
0,        196,        196,        1,   149760, 0x08f17b20
0,        197,        197,        1,   149760, 0x0319e942
0,        198,        198,        1,   149760, 0xab69057c
0,        199,        199,        1,   149760, 0xb98814f4
0,        200,        200,        1,   149760, 0xa172e6d0
0,        201,        201,        1,   149760, 0x6cd35cd1
0,        202,        202,        1,   149760, 0x7352b4b9
0,        203,        203,        1,   149760, 0x07cbdedd
0,        204,        204,        1,   149760, 0xbe7aa3c8
0,        205,        205,        1,   149760, 0xdcbc8993
0,        206,        206,        1,   149760, 0x0c5dbf95
0,        207,        207,        1,   149760, 0x107e4f2c
0,        208,        208,        1,   149760, 0xc650e333
0,        209,        209,        1,   149760, 0x46abae6f
0,        210,        210,        1,   149760, 0x0e41309d
0,        211,        211,        1,   149760, 0x831e19a1
0,        212,        212,        1,   149760, 0xd1955874
0,        213,        213,        1,   149760, 0x486c41bb
0,        214,        214,        1,   149760, 0xba020143
0,        215,        215,        1,   149760, 0x3ebedef4
0,        216,        216,        1,   149760, 0xda7bc235
0,        217,        217,        1,   149760, 0x0abcb13e
0,        218,        218,        1,   149760, 0xdf5159ac
0,        219,        219,        1,   149760, 0x4e39d893
0,        220,        220,        1,   149760, 0x393f382d
0,        221,        221,        1,   149760, 0x92556867
0,        222,        222,        1,   149760, 0x2daf47a8
0,        223,        223,        1,   149760, 0x792a4448
0,        224,        224,        1,   149760, 0x429e05ad
0,        225,        225,        1,   149760, 0x89caaa32
0,        226,        226,        1,   149760, 0xa70ec97b
0,        227,        227,        1,   149760, 0xce0d24b7
0,        228,        228,        1,   149760, 0x04be745d
0,        229,        229,        1,   149760, 0xfb04d3d2
0,        230,        230,        1,   149760, 0x5b472952
0,        231,        231,        1,   149760, 0x6cd704b5
0,        232,        232,        1,   149760, 0x18b0db7e
0,        233,        233,        1,   149760, 0xdfb24e07
0,        234,        234,        1,   149760, 0x6d9bae45
0,        235,        235,        1,   149760, 0xf2eb5756
0,        236,        236,        1,   149760, 0xdf858203
0,        237,        237,        1,   149760, 0xdcd4822f
0,        238,        238,        1,   149760, 0x80ceabaf
0,        239,        239,        1,   149760, 0x8bd1a92f
0,        240,        240,        1,   149760, 0x981a61ca
0,        241,        241,        1,   149760, 0x5fa92603
0,        242,        242,        1,   149760, 0xbb28f8da
0,        243,        243,        1,   149760, 0x1710666d
0,        244,        244,        1,   149760, 0xf928099a
0,        245,        245,        1,   149760, 0x2e0ae9cb
0,        246,        246,        1,   149760, 0xcf0e402c
0,        247,        247,        1,   149760, 0x48e5b987
0,        248,        248,        1,   149760, 0x7dc42853
0,        249,        249,        1,   149760, 0x25f4aef0
0,        250,        250,        1,   149760, 0x5f1d37b3
0,        251,        251,        1,   149760, 0xb2fabf9f
0,        252,        252,        1,   149760, 0xe87348ee
0,        253,        253,        1,   149760, 0xbe9ec00f
0,        254,        254,        1,   149760, 0xd67d1fb2
0,        255,        255,        1,   149760, 0x92db1ca8
